<svg width="40" height="41" viewBox="0 0 40 41" fill="none" xmlns="http://www.w3.org/2000/svg">
<g filter="url(#filter0_d_21_937)">
<path d="M26.7972 28.0863V23.0475L29.9222 19.9225V29.1025C29.9222 30.9387 28.3985 32.4625 26.6022 32.4625H8.32098C6.48473 32.4625 5.00098 30.9387 5.00098 29.1025V10.86C5.00098 9.02375 6.48598 7.5 8.32098 7.5H26.876V7.53875L23.751 10.625H9.37598C8.71223 10.625 8.12598 11.2113 8.12598 11.9138V28.0863C8.12598 28.79 8.71223 29.3363 9.37598 29.3363H25.5485C26.2122 29.3363 26.7972 28.7887 26.7972 28.0863ZM29.766 9.02375L33.086 12.3438L34.6097 10.82L31.2897 7.5L29.766 9.02375ZM18.086 20.7425L21.3672 24.0625L31.9535 13.4763L28.6722 10.1562L18.086 20.7425ZM15.7422 26.3675L20.2735 25.1562L16.9535 21.8363L15.7422 26.3675Z" fill="#711D17" stroke="#711D17" stroke-width="0.00064"/>
</g>
<defs>
<filter id="filter0_d_21_937" x="-4" y="0" width="48" height="48" filterUnits="userSpaceOnUse" color-interpolation-filters="sRGB">
<feFlood flood-opacity="0" result="BackgroundImageFix"/>
<feColorMatrix in="SourceAlpha" type="matrix" values="0 0 0 0 0 0 0 0 0 0 0 0 0 0 0 0 0 0 127 0" result="hardAlpha"/>
<feOffset dy="4"/>
<feGaussianBlur stdDeviation="2"/>
<feComposite in2="hardAlpha" operator="out"/>
<feColorMatrix type="matrix" values="0 0 0 0 0 0 0 0 0 0 0 0 0 0 0 0 0 0 0.25 0"/>
<feBlend mode="normal" in2="BackgroundImageFix" result="effect1_dropShadow_21_937"/>
<feBlend mode="normal" in="SourceGraphic" in2="effect1_dropShadow_21_937" result="shape"/>
</filter>
</defs>
</svg>
