<svg width="50" height="50" viewBox="0 0 50 50" fill="none" xmlns="http://www.w3.org/2000/svg">
<path d="M36.0269 29.7769C35.2133 30.5904 35.2133 31.9096 36.0269 32.7231C36.8404 33.5367 38.1596 33.5367 38.9731 32.7231L45.0419 26.6544C45.0731 26.6231 45.1035 26.5911 45.1327 26.5584C45.5625 26.1767 45.8333 25.62 45.8333 25C45.8333 24.38 45.5625 23.8234 45.1327 23.4417C45.1035 23.409 45.0731 23.3769 45.0419 23.3456L38.9731 17.2769C38.1596 16.4633 36.8404 16.4633 36.0269 17.2769C35.2133 18.0905 35.2133 19.4096 36.0269 20.2232L38.7204 22.9167H27.0833C25.9327 22.9167 25 23.8494 25 25C25 26.1506 25.9327 27.0834 27.0833 27.0834H38.7204L36.0269 29.7769Z" fill="#0D0A0B"/>
<path d="M10.4165 4.16669C6.96473 4.16669 4.1665 6.96492 4.1665 10.4167V39.5834C4.1665 43.0352 6.96473 45.8334 10.4165 45.8334H30.2082C33.0846 45.8334 35.4165 43.5015 35.4165 40.625V34.8596C35.108 34.6813 34.8175 34.4602 34.5536 34.1963C33.1903 32.8329 32.9692 30.7602 33.8903 29.1667H27.0832C24.7819 29.1667 22.9165 27.3013 22.9165 25C22.9165 22.6988 24.7819 20.8334 27.0832 20.8334H33.8903C32.9692 19.2399 33.1903 17.167 34.5536 15.8037C34.8175 15.5398 35.108 15.3187 35.4165 15.1404V9.37502C35.4165 6.49854 33.0846 4.16669 30.2082 4.16669H10.4165Z" fill="#0D0A0B"/>
</svg>
