<svg width="50" height="50" viewBox="0 0 50 50" fill="none" xmlns="http://www.w3.org/2000/svg">
<path d="M36.0269 29.777C35.2133 30.5905 35.2133 31.9097 36.0269 32.7232C36.8404 33.5367 38.1596 33.5367 38.9731 32.7232L45.0419 26.6545C45.0731 26.6232 45.1035 26.5911 45.1327 26.5584C45.5625 26.1767 45.8333 25.6201 45.8333 25.0001C45.8333 24.3801 45.5625 23.8234 45.1327 23.4417C45.1035 23.409 45.0731 23.377 45.0419 23.3457L38.9731 17.2769C38.1596 16.4634 36.8404 16.4634 36.0269 17.2769C35.2133 18.0905 35.2133 19.4096 36.0269 20.2232L38.7204 22.9167H27.0833C25.9327 22.9167 25 23.8495 25 25.0001C25 26.1507 25.9327 27.0834 27.0833 27.0834H38.7204L36.0269 29.777Z" fill="#0D0A0B"/>
<path d="M10.4165 4.16675C6.96473 4.16675 4.1665 6.96498 4.1665 10.4167V39.5834C4.1665 43.0353 6.96473 45.8334 10.4165 45.8334H30.2082C33.0846 45.8334 35.4165 43.5015 35.4165 40.6251V34.8597C35.108 34.6813 34.8175 34.4603 34.5536 34.1963C33.1903 32.833 32.9692 30.7603 33.8903 29.1667H27.0832C24.7819 29.1667 22.9165 27.3013 22.9165 25.0001C22.9165 22.6988 24.7819 20.8334 27.0832 20.8334H33.8903C32.9692 19.24 33.1903 17.1671 34.5536 15.8038C34.8175 15.5399 35.108 15.3187 35.4165 15.1405V9.37508C35.4165 6.4986 33.0846 4.16675 30.2082 4.16675H10.4165Z" fill="#0D0A0B"/>
</svg>
